<?xml version="1.0" standalone="no"?>
<svg xmlns="http://www.w3.org/2000/svg" width="246.14281036834927" height="137.94281036834926" viewBox="0 0 246.14281036834927 137.94281036834926"><g fill="#ffe500" color="#ffe500" transform="translate(0 0) scale(0.6897141)"><svg width="200.0" height="200.0" x="0.0" y="0.0" viewBox="0 0 200 200"><g><g><path fill="currentColor" d="M101.436,131.872c-12.143,0-23.41-7.071-28.703-18.014l5.168-2.5c4.341,8.974,13.579,14.771,23.534,14.771    s19.191-5.798,23.532-14.769l5.168,2.499C124.843,124.802,113.579,131.872,101.436,131.872z"></path><path fill="currentColor" d="M109.105,173.047H93.764l-3.131-15.638c-2.88-0.544-5.736-1.31-8.529-2.292l-10.535,11.967l-13.296-7.655    l5.102-15.133c-2.227-1.913-4.313-4-6.237-6.233l-15.119,5.096l-7.668-13.277l11.969-10.527c-0.683-1.957-1.273-3.999-1.762-6.094    l5.59-1.306c0.588,2.516,1.336,4.941,2.223,7.208l0.731,1.873l-11.426,10.049l2.964,5.132l14.431-4.863l1.255,1.563    c2.427,3.025,5.185,5.779,8.192,8.188l1.569,1.256l-4.87,14.442l5.145,2.964l10.063-11.432l1.872,0.731    c3.631,1.419,7.396,2.43,11.194,3.006l1.989,0.302l2.99,14.932h5.93l2.988-14.932l1.991-0.302    c3.796-0.576,7.563-1.587,11.191-3.006l1.872-0.731l10.063,11.432l5.146-2.964l-4.87-14.442l1.568-1.256    c3.01-2.408,5.766-5.163,8.196-8.188l1.253-1.563l14.432,4.863l2.963-5.132l-11.426-10.048l0.732-1.872    c0.887-2.271,1.632-4.695,2.221-7.206l5.592,1.309c-0.491,2.089-1.081,4.129-1.765,6.087l11.972,10.527l-7.668,13.277    l-15.121-5.096c-1.922,2.232-4.01,4.319-6.235,6.233l5.102,15.133l-13.298,7.655l-10.534-11.967    c-2.791,0.982-5.646,1.748-8.53,2.292L109.105,173.047z"></path><path fill="currentColor" d="M152.722,88.041c-0.586-2.513-1.334-4.937-2.218-7.203l-0.733-1.872l11.424-10.058l-2.963-5.132    l-14.429,4.866l-1.256-1.563c-2.423-3.016-5.179-5.771-8.196-8.191l-1.565-1.255l4.869-14.447l-5.148-2.971L122.44,51.657    l-1.871-0.729c-3.644-1.42-7.406-2.431-11.185-3.002l-1.988-0.3L104.4,32.695h-5.931l-2.994,14.931l-1.991,0.3    c-3.775,0.571-7.539,1.582-11.183,3.002l-1.87,0.729L70.364,40.215l-5.147,2.969l4.87,14.449l-1.565,1.255    c-3.018,2.42-5.774,5.176-8.196,8.191l-1.254,1.563l-14.432-4.866l-2.964,5.132l11.424,10.058l-0.73,1.872    c-0.883,2.262-1.629,4.684-2.218,7.202l-5.592-1.309c0.491-2.093,1.081-4.131,1.761-6.084L34.351,70.109l7.668-13.276    l15.122,5.099c1.919-2.228,4.006-4.315,6.235-6.232l-5.101-15.137l13.295-7.672l10.542,11.985    c2.797-0.981,5.648-1.748,8.517-2.288l3.138-15.635h15.34l3.136,15.635c2.87,0.54,5.722,1.306,8.518,2.288l10.544-11.985    l13.295,7.67l-5.104,15.138c2.229,1.919,4.318,4.004,6.237,6.232l15.121-5.099l7.666,13.276l-11.967,10.538    c0.683,1.956,1.273,3.996,1.762,6.088L152.722,88.041z"></path><path fill="currentColor" d="M124.968,88.636c-4.341-8.97-13.577-14.767-23.532-14.767s-19.192,5.796-23.532,14.767l-5.168-2.5    c5.292-10.94,16.557-18.009,28.7-18.009c12.141,0,23.407,7.069,28.7,18.009L124.968,88.636z"></path></g><g><polygon fill="currentColor" points="16.662,106.308 16.662,93.69 5.742,100.002   "></polygon><polygon fill="currentColor" points="26.148,115.094 0,100.004 26.146,84.899 29.019,89.871 11.483,100.001 29.018,110.12   "></polygon><rect x="40.193" y="97.13" fill="currentColor" width="131.717" height="5.742"></rect><path fill="currentColor" d="M171.91,115.483L171.91,115.483l-144.328-0.006c-1.161,0-2.208-0.698-2.651-1.771    c-0.445-1.072-0.2-2.308,0.623-3.129L36.132,100l-10.58-10.585c-0.821-0.821-1.065-2.056-0.622-3.129    c0.443-1.073,1.49-1.771,2.651-1.771l0,0l144.328,0.002c0.763,0,1.492,0.303,2.031,0.841c0.538,0.539,0.84,1.269,0.84,2.03v25.225    C174.781,114.197,173.495,115.483,171.91,115.483z M34.515,109.736l134.524,0.005V90.259L34.512,90.256l7.71,7.714    c1.122,1.122,1.122,2.939,0,4.059L34.515,109.736z"></path><path fill="currentColor" d="M171.91,115.483c-0.763,0-1.493-0.303-2.031-0.842c-0.538-0.538-0.84-1.269-0.84-2.029V87.388    c0-0.761,0.304-1.491,0.843-2.03c0.538-0.538,1.269-0.841,2.028-0.841h0.002l12.607,0.002c1.585,0,2.871,1.286,2.871,2.871v25.217    c0,1.585-1.286,2.869-2.871,2.87L171.91,115.483L171.91,115.483z M174.781,90.259v19.481l6.867-0.003V90.261L174.781,90.259z"></path><path fill="currentColor" d="M184.54,115.478c-0.008,0-0.018,0-0.025,0l0.01-5.741c0.005,0,0.011,0,0.016,0    c2.592,0,5.028-1.011,6.865-2.849c1.842-1.84,2.854-4.286,2.854-6.884c0-2.604-1.015-5.052-2.854-6.891    c-1.842-1.839-4.284-2.852-6.876-2.852c-0.002,0-0.005,0-0.007,0l-0.005-5.742c0.005,0,0.007,0,0.012,0    c4.125,0,8.007,1.61,10.936,4.533c2.926,2.924,4.535,6.813,4.535,10.95c0.003,4.13-1.607,8.018-4.533,10.945    C192.544,113.871,188.664,115.478,184.54,115.478z"></path></g></g></svg></g><path fill="#59b367" fill-rule="nonzero" d="M19 32.56L19 37.52L4.52 37.52Q2.32 37.52 1.16 36.48Q0 35.44 0 33.76Q0 32.08 1.24 30.24L1.24 30.24L12.44 14.00L0.80 14.00L0.80 9.04L19 9.04L19 13.44L6 32.56L19 32.56ZM44.80 21.96L44.80 21.96L44.80 24.12Q44.80 31.28 42.10 34.52Q39.40 37.76 33.44 37.76Q27.48 37.76 24.82 34.54Q22.16 31.32 22.16 24.04L22.16 24.04L22.16 22.52Q22.16 15.48 24.86 12.14Q27.56 8.80 33.48 8.80L33.48 8.80Q44.80 8.80 44.80 21.96ZM39.24 23.88L39.24 23.88L39.24 21.96Q39.24 16.96 37.88 15.40L37.88 15.40Q36.52 13.76 33.48 13.76Q30.44 13.76 29 15.44L29 15.44Q27.96 16.68 27.80 19.76L27.80 19.76Q27.72 20.76 27.72 22.52L27.72 22.52L27.72 24.00Q27.76 28.24 28.36 29.80L28.36 29.80Q29.48 32.80 33.48 32.80L33.48 32.80Q36.96 32.80 38.12 30.80L38.12 30.80Q38.88 29.36 39.04 28.00L39.04 28.00Q39.24 26.28 39.24 23.88ZM39.98 0.56Q40.68 1.12 40.68 2.68Q40.68 4.24 39.98 4.80Q39.28 5.36 38 5.36Q36.72 5.36 36.02 4.80Q35.32 4.24 35.32 2.68Q35.32 1.12 36.02 0.56Q36.72 0 38 0Q39.28 0 39.98 0.56ZM30.94 0.56Q31.64 1.12 31.64 2.68Q31.64 4.24 30.94 4.80Q30.24 5.36 28.96 5.36Q27.68 5.36 26.98 4.80Q26.28 4.24 26.28 2.68Q26.28 1.12 26.98 0.56Q27.68 0 28.96 0Q30.24 0 30.94 0.56ZM67.24 32.56L67.24 37.52L58.76 37.52Q53.96 37.52 51.82 35.66Q49.68 33.80 49.68 29.60L49.68 29.60L49.68 9.04L55.24 9.04L55.24 29.60Q55.24 31.28 56 31.92Q56.76 32.56 58.76 32.56L58.76 32.56L67.24 32.56ZM93.16 23.16L93.16 23.16L93.20 26.24Q93.04 29.16 92.48 31.16Q91.92 33.16 90.28 34.80L90.28 34.80Q87.56 37.52 82.36 37.52L82.36 37.52Q76.24 37.52 73.96 35.90Q71.68 34.28 71.68 30.04L71.68 30.04L71.68 9.04L82.76 9.04Q87.56 9.04 90.28 11.76L90.28 11.76Q92.48 13.96 92.88 17.12L92.88 17.12Q93.16 19.36 93.16 23.16ZM86.40 30.80Q87.16 29.88 87.38 28.26Q87.60 26.64 87.60 23.20Q87.60 19.76 87.38 18.22Q87.16 16.68 86.40 15.76L86.40 15.76Q84.96 14.00 82.24 14.00L82.24 14.00L77.24 14.00L77.24 29.76Q77.24 31.36 78.32 31.96Q79.40 32.56 82.18 32.56Q84.96 32.56 86.40 30.80L86.40 30.80Z" transform="translate(152.943 0) scale(1)"></path><path fill="#59b367" fill-rule="nonzero" d="M18.76 0L18.76 4.96L8.72 4.96Q6.96 4.96 6.26 5.64Q5.56 6.32 5.56 8L5.56 8L5.56 11.96L16 11.96L15.60 16.92L5.56 16.92L5.56 28.48L0 28.48L0 5.80Q0 2.64 1.38 1.32Q2.76 0 6.12 0L6.12 0L18.76 0ZM28.70 23.10Q29.32 23.72 29.32 25.72Q29.32 27.72 28.70 28.36Q28.08 29 26.08 29Q24.08 29 23.44 28.36Q22.80 27.72 22.80 25.72Q22.80 23.72 23.44 23.10Q24.08 22.48 26.08 22.48Q28.08 22.48 28.70 23.10Z" transform="translate(152.943 45.761) scale(3.179)"></path></svg>