<?xml version="1.0" standalone="no"?>
<!DOCTYPE svg PUBLIC "-//W3C//DTD SVG 20010904//EN"
 "http://www.w3.org/TR/2001/REC-SVG-20010904/DTD/svg10.dtd">
<svg version="1.0" xmlns="http://www.w3.org/2000/svg"
 width="1500.000000pt" height="1500.000000pt" viewBox="0 0 1500.000000 1500.000000"
 preserveAspectRatio="xMidYMid meet">
<metadata>
Created by potrace 1.14, written by Peter Selinger 2001-2017
</metadata>
<g transform="translate(0.000000,1500.000000) scale(0.100000,-0.100000)"
fill="#000000" stroke="none">
<path d="M10994 11682 c-52 -25 -74 -73 -70 -157 5 -108 42 -145 150 -150 114
-5 167 41 172 149 3 77 -21 136 -64 156 -48 22 -142 23 -188 2z"/>
<path d="M11565 11689 c-67 -21 -94 -69 -90 -164 4 -111 44 -150 155 -150 116
1 162 43 166 152 4 88 -19 134 -76 157 -44 17 -108 20 -155 5z"/>
<path d="M11260 11159 c-190 -23 -288 -64 -391 -168 -95 -95 -157 -237 -185
-421 -14 -96 -13 -483 2 -579 38 -246 110 -393 239 -481 59 -41 178 -87 244
-95 30 -4 63 -9 75 -11 25 -5 188 -5 231 0 80 9 126 20 188 43 216 80 323 234
370 536 20 125 21 454 1 585 -47 322 -194 503 -459 571 -82 21 -227 30 -315
20z m240 -317 c44 -15 103 -52 128 -82 26 -30 53 -101 67 -172 16 -84 18 -484
4 -588 -28 -194 -116 -283 -294 -296 -166 -13 -285 39 -340 146 -40 80 -48
141 -51 410 -3 262 6 362 39 442 28 67 89 115 182 144 55 16 209 14 265 -4z"/>
<path d="M9372 10998 l3 -152 348 0 c191 0 347 -3 347 -8 0 -5 -5 -14 -11 -21
-9 -10 -102 -144 -437 -632 -42 -60 -91 -132 -111 -160 -167 -238 -196 -300
-188 -403 7 -85 42 -136 123 -177 l59 -30 485 0 485 0 1 147 c2 103 -1 148
-10 150 -6 2 -183 4 -393 3 -211 0 -383 1 -383 3 0 2 51 79 113 170 63 92 154
226 202 297 49 72 174 256 279 410 l191 280 1 138 1 137 -554 0 -554 0 3 -152z"/>
<path d="M12349 11098 c-3 -258 1 -1291 6 -1318 21 -123 69 -211 147 -270 108
-81 213 -97 610 -96 l303 1 0 150 0 150 -285 1 c-312 0 -353 4 -393 37 -51 40
-52 67 -51 760 l0 637 -168 0 -168 0 -1 -52z"/>
<path d="M13689 11133 c-4 -142 1 -1341 6 -1373 38 -255 202 -345 625 -344 63
0 138 3 165 7 267 39 438 201 491 462 29 148 26 681 -6 830 -26 122 -119 259
-223 328 -141 94 -215 105 -684 106 -351 1 -373 0 -374 -16z m770 -307 c58
-21 106 -58 137 -106 47 -71 55 -126 58 -385 4 -339 -8 -429 -67 -506 -61 -81
-156 -117 -292 -113 -115 3 -193 22 -226 53 -42 41 -42 46 -43 554 -1 268 2
496 6 506 6 17 21 18 195 16 146 -2 198 -6 232 -19z"/>
<path d="M3940 10565 c0 -1 -18 -91 -40 -201 -22 -109 -43 -210 -45 -224 -3
-14 -7 -38 -11 -55 -31 -166 -39 -184 -74 -185 -22 0 -204 -48 -267 -70 l-52
-18 -163 187 c-89 102 -167 191 -173 197 -5 6 -32 36 -59 66 l-49 56 -36 -22
c-20 -12 -43 -26 -51 -30 -8 -4 -24 -12 -35 -19 -24 -14 -166 -96 -215 -125
-71 -40 -215 -124 -218 -126 -1 -2 45 -145 103 -318 l106 -315 -132 -132 -132
-132 -315 105 c-174 58 -317 105 -318 103 -17 -18 -314 -545 -312 -554 2 -6
50 -53 108 -103 58 -51 121 -106 140 -124 19 -17 82 -73 140 -123 l106 -93
-25 -80 -25 -80 -101 0 c-55 -1 -230 -2 -390 -3 l-290 -2 -105 -63 c-58 -34
-112 -67 -120 -72 -8 -6 -22 -13 -30 -17 -8 -4 -62 -34 -120 -68 -159 -93
-236 -138 -493 -285 -130 -74 -236 -138 -237 -142 0 -9 23 -22 615 -363 l499
-289 385 0 385 -1 26 -82 27 -82 -51 -43 c-27 -24 -60 -52 -72 -63 -12 -11
-48 -42 -80 -70 -32 -27 -68 -59 -80 -70 -38 -35 -87 -78 -157 -139 -58 -51
-66 -61 -55 -75 7 -9 18 -25 24 -36 6 -11 55 -96 109 -190 54 -93 117 -202
139 -241 l41 -71 316 105 315 106 133 -132 133 -133 -107 -315 c-58 -174 -105
-317 -103 -318 2 -2 126 -73 276 -159 226 -130 276 -155 290 -145 9 6 50 50
90 97 40 47 87 102 105 121 17 19 61 69 97 110 36 41 82 93 103 116 l38 41
108 -32 c59 -18 138 -38 176 -46 51 -10 69 -18 75 -34 4 -11 33 -150 64 -310
31 -159 60 -299 65 -310 8 -19 17 -20 317 -18 170 0 314 2 320 2 6 1 19 40 28
89 10 48 20 96 22 107 2 11 7 34 10 50 3 17 19 98 36 180 16 83 32 164 35 180
7 43 19 51 106 70 43 9 120 30 170 46 l92 29 18 -23 c11 -12 35 -40 55 -62 21
-22 69 -76 107 -120 39 -44 72 -82 75 -85 3 -3 39 -43 80 -90 41 -47 82 -93
91 -104 17 -18 25 -15 241 110 123 70 248 142 279 160 l55 33 -107 320 c-85
254 -105 322 -94 328 17 10 135 124 198 191 26 29 53 52 60 52 7 0 150 -47
319 -104 l307 -104 28 47 c15 25 37 62 48 82 11 19 71 125 134 234 105 182
113 199 97 211 -10 7 -35 28 -55 46 -20 18 -72 65 -116 103 -44 39 -82 72 -85
75 -3 3 -56 50 -117 104 -62 54 -113 100 -113 102 0 2 4 13 9 26 5 13 15 43
22 68 7 25 16 49 21 55 5 6 230 10 601 11 325 1 608 4 627 8 249 47 440 213
516 449 20 63 23 88 20 202 -2 72 -5 137 -8 145 -3 8 -8 29 -13 45 -11 42 -63
143 -99 190 -79 103 -217 202 -321 230 -16 5 -34 9 -40 11 -60 17 -203 22
-700 22 l-580 0 -28 78 -28 79 54 50 c29 28 82 75 118 106 35 31 107 94 159
140 53 46 113 99 133 117 42 36 43 31 -10 122 -11 19 -73 127 -138 240 -65
113 -123 210 -129 217 -9 10 -81 -11 -323 -93 l-313 -106 -133 132 -133 133
103 305 c57 168 103 311 103 318 0 9 -369 234 -385 234 -2 0 -36 20 -76 45
-40 25 -78 45 -84 45 -7 0 -25 -15 -41 -32 -40 -45 -98 -111 -169 -192 -33
-38 -75 -85 -92 -105 -18 -20 -56 -64 -85 -98 -29 -34 -60 -62 -69 -62 -9 -1
-51 10 -93 23 -43 14 -112 33 -154 42 -42 9 -84 20 -93 25 -10 5 -21 35 -29
81 -8 40 -15 78 -16 83 -1 6 -5 25 -8 43 -4 18 -13 65 -22 105 -8 39 -17 86
-20 102 -3 17 -15 77 -27 135 l-23 105 -322 1 c-177 0 -322 0 -322 -1z m451
-261 c4 -12 10 -36 13 -55 10 -60 16 -91 56 -287 22 -107 43 -208 46 -225 6
-36 18 -46 57 -48 15 -1 30 -2 35 -3 4 -1 27 -6 52 -10 25 -4 72 -15 105 -23
33 -8 67 -16 75 -18 37 -7 133 -38 220 -70 l95 -36 35 39 c30 33 105 117 173
196 72 82 138 157 175 197 l43 47 105 -60 c57 -33 104 -64 104 -69 0 -5 -45
-142 -100 -305 l-100 -296 25 -20 c14 -11 31 -25 38 -31 6 -7 26 -23 42 -35
56 -43 230 -220 290 -296 33 -41 66 -75 72 -75 7 -1 146 44 307 98 l295 100
60 -104 c34 -57 61 -108 61 -114 0 -5 -6 -14 -14 -18 -12 -7 -79 -64 -159
-136 -18 -16 -92 -81 -164 -145 -73 -64 -133 -121 -133 -127 0 -6 18 -58 39
-116 22 -57 38 -105 37 -107 -3 -2 -878 -5 -928 -3 -9 1 -31 25 -49 54 -182
296 -509 528 -849 601 -122 27 -301 36 -431 23 -286 -28 -590 -176 -805 -391
-73 -74 -170 -198 -198 -253 -12 -24 -24 -33 -41 -33 -14 -1 -198 -1 -410 -1
-212 0 -415 0 -451 1 -76 0 -74 -14 -17 140 30 81 32 96 20 105 -14 10 -363
316 -434 380 l-33 30 33 55 c19 30 47 78 63 107 l29 52 165 -55 c91 -30 172
-58 180 -61 8 -3 20 -7 25 -9 6 -1 57 -19 114 -38 58 -20 110 -36 116 -36 6 0
36 30 66 68 68 85 244 261 332 331 37 30 67 59 67 64 0 5 -16 57 -36 116 -20
58 -37 111 -38 116 -2 6 -6 17 -9 25 -15 37 -117 344 -114 345 1 1 49 29 107
62 l105 61 21 -22 c11 -11 54 -59 95 -106 40 -47 78 -90 84 -96 5 -6 37 -42
70 -80 170 -194 145 -180 248 -140 140 54 299 95 508 130 20 4 36 12 36 19 0
6 3 26 7 42 3 17 8 41 11 55 3 14 12 59 20 100 8 41 17 86 20 100 3 14 7 36
10 50 13 59 17 79 30 150 8 41 17 84 20 95 4 19 12 20 126 20 114 0 122 -2
130 -21z m-26 -1718 c33 -2 80 -9 105 -15 25 -5 56 -12 70 -15 48 -8 173 -58
239 -94 121 -66 268 -187 334 -275 l28 -37 -83 0 c-46 0 -441 -2 -879 -3
l-797 -2 21 30 c12 17 51 59 87 95 178 179 430 298 670 316 41 3 76 7 78 9 1
1 17 1 35 -1 17 -1 59 -5 92 -8z m2733 -823 l3 -143 -28 -1 c-16 0 -1222 -1
-2682 -1 l-2653 -1 -139 139 c-76 76 -139 141 -139 144 0 3 1268 6 2818 5
l2817 0 3 -142z m527 138 c6 -1 10 -143 10 -406 l0 -405 -40 -1 c-43 0 -225 0
-237 1 -5 0 -8 184 -8 408 l0 408 133 -2 c72 -1 137 -2 142 -3z m340 -56 c187
-110 253 -357 145 -550 -42 -77 -143 -163 -211 -180 l-24 -6 0 389 0 390 25
-10 c14 -5 43 -20 65 -33z m-6633 -162 l187 -187 -190 -189 -189 -190 -217
125 -218 125 -2 129 -3 129 213 122 c116 67 216 122 222 122 5 1 94 -83 197
-186z m5768 -453 l0 -145 -2767 2 c-1523 1 -2793 3 -2823 3 l-55 0 143 143
143 143 2679 0 2680 -1 0 -145z m-3964 -455 c141 -215 319 -373 546 -483 449
-218 966 -168 1378 134 130 95 300 282 348 382 9 17 20 33 26 33 6 1 221 2
479 3 309 1 466 -2 464 -9 -2 -5 -19 -50 -36 -100 -18 -49 -36 -97 -41 -106
-8 -15 94 -109 442 -410 17 -15 29 -31 27 -36 -16 -39 -116 -203 -124 -203 -6
0 -105 32 -220 71 -116 38 -249 83 -297 98 l-87 29 -42 -57 c-54 -72 -275
-292 -356 -356 -35 -26 -63 -49 -63 -49 0 -1 45 -134 100 -296 55 -161 100
-298 100 -304 0 -10 -177 -116 -205 -124 -6 -1 -35 25 -65 60 -30 34 -75 85
-100 113 -96 108 -169 192 -211 242 -49 58 -59 59 -148 21 -83 -35 -284 -90
-411 -112 l-125 -22 -27 -125 c-15 -68 -30 -140 -33 -159 -10 -59 -66 -335
-69 -337 -7 -7 -239 -3 -245 4 -6 6 -37 157 -86 408 -5 29 -34 167 -40 191 -4
18 -17 23 -92 33 -118 18 -283 61 -422 110 -63 23 -117 41 -121 41 -3 0 -42
-41 -86 -91 -43 -50 -89 -103 -102 -118 -13 -14 -43 -48 -67 -76 -23 -27 -53
-61 -66 -75 -13 -14 -41 -45 -61 -69 -43 -50 -35 -52 -164 24 l-92 55 100 301
101 302 -29 26 c-17 14 -57 49 -89 76 -85 72 -192 181 -274 279 l-71 85 -291
-100 c-160 -54 -297 -99 -304 -99 -10 0 -68 89 -121 187 -12 21 -2 32 184 195
108 95 216 191 239 213 l43 40 -40 107 c-22 59 -40 111 -40 116 0 5 212 8 470
8 l470 -1 46 -70z m2004 63 c0 -13 -194 -202 -242 -235 -136 -95 -308 -165
-468 -191 -25 -4 -108 -7 -185 -6 -235 2 -410 58 -610 196 -77 53 -176 143
-218 199 -15 20 -27 38 -27 40 0 2 394 4 875 4 481 0 875 -3 875 -7z"/>
<path d="M10240 8900 c-25 -4 -72 -11 -104 -14 -151 -18 -337 -82 -449 -156
-141 -91 -218 -196 -293 -395 -11 -32 -45 -177 -60 -260 -4 -22 -9 -1084 -11
-2361 l-4 -2320 539 0 539 0 0 1113 c0 612 2 1116 6 1119 3 3 440 6 971 6 734
-1 966 2 968 11 2 17 4 50 12 157 4 52 9 106 11 120 2 14 6 66 10 115 3 50 8
110 10 135 2 25 7 77 10 115 9 120 15 193 20 253 l5 57 -1010 -1 -1010 0 -1
20 c-4 92 0 836 5 883 13 126 52 232 110 300 52 60 158 116 249 130 18 3 52 9
77 13 25 5 508 9 1074 10 566 0 1032 2 1034 5 3 3 6 218 6 478 l0 472 -1334 1
c-734 1 -1355 -2 -1380 -6z"/>
<path d="M14267 4554 c-1 -1 -36 -4 -77 -8 -160 -13 -278 -55 -337 -118 -76
-82 -116 -259 -115 -511 2 -327 65 -496 209 -558 106 -45 222 -63 418 -64 227
0 362 24 462 82 116 68 164 216 168 518 4 249 -13 361 -71 476 -63 127 -218
179 -537 183 -65 1 -119 1 -120 0z"/>
</g>
</svg>
